# xmcd
#
# Track frame offsets: 
#        150
#        20399
#        38154
#        56118
#        77514
#        96762
#        111116
#        126926
#        131732
#        160957
#        184717
#
# Disc length: 2672 seconds
#
# Revision: 0
# Processed by: cddbd v1.5.2PL0 Copyright (c) Steve Scherf et al.
# Submitted via: ExactAudioCopyFreeDBPlugin 1.0
#
DISCID=8d0a6e0b
DTITLE=Coralee and The Townies - Criminal Pride
DYEAR=2014
DGENRE=Country
TTITLE0=Night Song
TTITLE1=Bird and a Bee
TTITLE2=Song of Blue
TTITLE3=Hot Minute Thing
TTITLE4=Low Down Love
TTITLE5=Cautionary Chorus
TTITLE6=Criminal Pride
TTITLE7=Tempest Prelude
TTITLE8=Tempest Winds
TTITLE9=Trainwreck Town
TTITLE10=Always Darlin
EXTD=
EXTT0=
EXTT1=
EXTT2=
EXTT3=
EXTT4=
EXTT5=
EXTT6=
EXTT7=
EXTT8=
EXTT9=
EXTT10=
PLAYORDER=
